<?xml version="1.0" encoding="UTF-8" standalone="no"?>
<svg
   xmlns:dc="http://purl.org/dc/elements/1.1/"
   xmlns:cc="http://creativecommons.org/ns#"
   xmlns:rdf="http://www.w3.org/1999/02/22-rdf-syntax-ns#"
   xmlns:svg="http://www.w3.org/2000/svg"
   xmlns="http://www.w3.org/2000/svg"
   xmlns:sodipodi="http://sodipodi.sourceforge.net/DTD/sodipodi-0.dtd"
   xmlns:inkscape="http://www.inkscape.org/namespaces/inkscape"
   width="240"
   height="130"
   version="1.1"
   id="svg28"
   sodipodi:docname="nutriscore-unknown.svg"
   inkscape:version="0.92.4 (5da689c313, 2019-01-14)">
  <metadata
     id="metadata34">
    <rdf:RDF>
      <cc:Work
         rdf:about="">
        <dc:format>image/svg+xml</dc:format>
        <dc:type
           rdf:resource="http://purl.org/dc/dcmitype/StillImage" />
        <dc:title></dc:title>
      </cc:Work>
    </rdf:RDF>
  </metadata>
  <defs
     id="defs32" />
  <sodipodi:namedview
     pagecolor="#ffffff"
     bordercolor="#666666"
     borderopacity="1"
     objecttolerance="10"
     gridtolerance="10"
     guidetolerance="10"
     inkscape:pageopacity="0"
     inkscape:pageshadow="2"
     inkscape:window-width="1680"
     inkscape:window-height="974"
     id="namedview30"
     showgrid="false"
     inkscape:zoom="1.6916667"
     inkscape:cx="121.18227"
     inkscape:cy="65"
     inkscape:window-x="0"
     inkscape:window-y="26"
     inkscape:window-maximized="1"
     inkscape:current-layer="svg28" />
  <path
     style="opacity:1;fill:#fff;fill-opacity:1;fill-rule:evenodd;stroke:none;stroke-width:1;stroke-linecap:round;stroke-linejoin:round;stroke-miterlimit:4;stroke-dasharray:none;stroke-dashoffset:0;stroke-opacity:1"
     d="M-419.315 0H1163.41c99.748 0 180.05 80.302 180.05 180.05v632.48c0 99.748-80.302 180.05-180.05 180.05H-419.315c-99.747 0-180.049-80.302-180.049-180.05V180.05C-599.364 80.301-519.062 0-419.314 0z"
     id="path2"
     transform="translate(74.04) scale(.12353)" />
  <path
     style="opacity:1;fill:#b3b3b3;fill-opacity:1;fill-rule:evenodd;stroke:none;stroke-width:1;stroke-linecap:round;stroke-linejoin:round;stroke-miterlimit:4;stroke-dasharray:none;stroke-dashoffset:0;stroke-opacity:1"
     d="M748.698 357.79h363.03v586.315h-363.03zM-308.515 357.79h363.03v586.315h-363.03z"
     transform="translate(74.04) scale(.12353)"
     id="path4" />
  <path
     style="opacity:1;fill:#b3b3b3;fill-opacity:1;fill-rule:evenodd;stroke:none;stroke-width:1;stroke-linecap:round;stroke-linejoin:round;stroke-miterlimit:4;stroke-dasharray:none;stroke-dashoffset:0;stroke-opacity:1"
     d="M1069.556 357.79h90.647c75.45 0 136.192 60.742 136.192 136.192v313.932c0 75.45-60.742 136.191-136.192 136.191h-90.647c-75.45 0-136.192-60.741-136.192-136.19V493.981c0-75.45 60.742-136.191 136.192-136.191z"
     transform="translate(74.04) scale(.12353)"
     id="path6" />
  <path
     style="font-style:normal;font-variant:normal;font-weight:800;font-stretch:normal;font-size:medium;line-height:90%;font-family:Raleway;-inkscape-font-specification:'Raleway Ultra-Bold';letter-spacing:0;word-spacing:0;fill:#fff;fill-opacity:.446064;stroke:none;stroke-width:1px;stroke-linecap:butt;stroke-linejoin:miter;stroke-opacity:1"
     d="M1188.707 725.895v53.91h-186.81V514.001h183.44v53.91h-122.044v51.662h104.824v49.791h-104.824v56.53z"
     transform="translate(74.04) scale(.12353)"
     id="path8" />
  <path
     style="font-style:normal;font-variant:normal;font-weight:800;font-stretch:normal;font-size:medium;line-height:89.99999762%;font-family:Raleway;-inkscape-font-specification:'Raleway Ultra-Bold';letter-spacing:0;word-spacing:0;fill:#b3b3b3;fill-opacity:1;stroke:none;stroke-width:0.12353px;stroke-linecap:butt;stroke-linejoin:miter;stroke-opacity:1"
     d="m 72.470127,19.562539 v 9.490316 H 68.636621 V 12.456476 h 2.991896 l 7.737302,9.747382 v -9.747382 h 3.833506 v 16.596256 h -3.085532 z m 21.055565,6.217759 q 0.981693,0 1.659626,-0.397396 0.677932,-0.420743 1.098676,-1.098675 0.420743,-0.677809 0.584297,-1.542767 0.187024,-0.88818 0.187024,-1.799832 v -8.485275 h 3.833505 v 8.485275 q 0,1.729791 -0.44409,3.225739 -0.42074,1.495949 -1.332394,2.618095 -0.88818,1.1219 -2.29074,1.776361 -1.379089,0.631239 -3.295904,0.631239 -1.986856,0 -3.389416,-0.677933 -1.40256,-0.677809 -2.29074,-1.799832 -0.864957,-1.14537 -1.2857,-2.641442 -0.397273,-1.495948 -0.397273,-3.132227 v -8.485275 h 3.833507 v 8.485275 q 0,0.958346 0.187024,1.823303 0.186901,0.86471 0.607768,1.542766 0.420743,0.677809 1.075205,1.075205 0.677809,0.397396 1.659625,0.397396 z m 22.956568,-9.957876 h -5.04904 v 13.230433 h -3.83351 V 15.822298 h -5.07239 v -3.365945 h 13.95494 z m 1.87222,13.230433 V 12.456476 h 7.48011 q 1.16872,0 2.15054,0.490785 1.00504,0.490908 1.72966,1.2857 0.72463,0.794792 1.12203,1.799832 0.42074,1.005164 0.42074,2.033675 0,0.771321 -0.1869,1.495948 -0.18703,0.70128 -0.53773,1.332394 -0.35057,0.631239 -0.86483,1.145494 -0.49091,0.490785 -1.12202,0.841487 l 3.6466,6.171064 h -4.32441 l -3.17905,-5.352925 h -2.50123 v 5.352925 z m 3.83351,-8.695647 h 3.50627 q 0.67794,0 1.16884,-0.631115 0.49079,-0.654462 0.49079,-1.659625 0,-1.028511 -0.56083,-1.636279 -0.56107,-0.607767 -1.21553,-0.607767 h -3.38954 z m 11.82602,8.695647 V 12.456476 h 3.83363 v 16.596256 z m 6.7036,-4.745281 v -3.365946 h 7.19958 v 3.366069 z m 20.00964,-6.989081 q -0.0704,-0.09351 -0.49103,-0.350701 -0.42075,-0.257066 -1.05186,-0.537603 -0.63112,-0.280413 -1.37909,-0.490908 -0.7481,-0.210372 -1.49595,-0.210372 -2.05714,0 -2.05714,1.379213 0,0.420743 0.21037,0.701156 0.23384,0.280537 0.65458,0.514256 0.44409,0.210495 1.09855,0.397396 0.65459,0.187024 1.51942,0.420743 1.19207,0.327354 2.15054,0.724627 0.95834,0.374049 1.61281,0.958469 0.67793,0.56095 1.02863,1.379089 0.37392,0.818139 0.37392,1.963509 0,1.40256 -0.5376,2.384253 -0.51425,0.958469 -1.37909,1.566113 -0.86495,0.584421 -1.98698,0.864957 -1.12202,0.257066 -2.31408,0.257066 -0.91166,0 -1.87,-0.140206 -0.95847,-0.140207 -1.87,-0.397396 -0.91165,-0.280414 -1.77661,-0.654462 -0.84148,-0.374049 -1.56611,-0.864957 l 1.68297,-3.342599 q 0.0935,0.11686 0.60777,0.444091 0.51426,0.327354 1.26235,0.654585 0.77132,0.327231 1.70632,0.584297 0.93513,0.257189 1.89347,0.257189 2.03355,0 2.03355,-1.239005 0,-0.467438 -0.30388,-0.771322 -0.30389,-0.303884 -0.84149,-0.537602 -0.5376,-0.257066 -1.28558,-0.467438 -0.72462,-0.210371 -1.58958,-0.467561 -1.14537,-0.350578 -1.98686,-0.747974 -0.84148,-0.420743 -1.40256,-0.958469 -0.5376,-0.537603 -0.81813,-1.238883 -0.25707,-0.701156 -0.25707,-1.636155 0,-1.309047 0.49091,-2.314211 0.49078,-1.005163 1.33239,-1.682972 0.84149,-0.70128 1.94004,-1.051858 1.12202,-0.350702 2.36091,-0.350702 0.86495,0 1.70644,0.163677 0.84149,0.163554 1.61293,0.420744 0.77132,0.257065 1.42578,0.584296 0.67794,0.327355 1.23901,0.654586 z m 3.46489,3.295904 q 0,-1.495948 0.56095,-2.968673 0.56107,-1.495948 1.63628,-2.664789 1.07533,-1.168717 2.61809,-1.893344 1.54277,-0.724627 3.50628,-0.724627 2.33743,0 4.04388,1.00504 1.72979,1.005164 2.57127,2.618095 l -2.94532,2.057021 q -0.28041,-0.654585 -0.72463,-1.075328 -0.42074,-0.444091 -0.935,-0.701156 -0.51425,-0.280537 -1.05186,-0.374049 -0.5376,-0.11686 -1.05185,-0.11686 -1.09868,0 -1.91682,0.444091 -0.81814,0.44409 -1.35574,1.14537 -0.5376,0.70128 -0.79479,1.589584 -0.25707,0.888181 -0.25707,1.799832 0,0.981816 0.30389,1.893344 0.30388,0.911652 0.86483,1.612931 0.5843,0.70128 1.37909,1.122023 0.81814,0.397396 1.8233,0.397396 0.51426,0 1.05186,-0.116859 0.56107,-0.14033 1.05198,-0.397396 0.51426,-0.280413 0.935,-0.70128 0.42074,-0.44409 0.67781,-1.075205 l 3.13235,1.846527 q -0.37405,0.911651 -1.12202,1.636278 -0.72463,0.724627 -1.6831,1.215535 -0.95835,0.490908 -2.03355,0.747974 -1.07533,0.25719 -2.10372,0.25719 -1.79995,0 -3.31937,-0.724627 -1.49595,-0.747974 -2.59463,-1.96351 -1.07532,-1.215535 -1.68297,-2.758301 -0.58442,-1.542766 -0.58442,-3.132227 z m 24.1159,8.578665 q -1.84678,0 -3.36607,-0.724627 -1.51942,-0.724627 -2.59463,-1.893345 -1.07532,-1.192188 -1.68297,-2.711483 -0.58442,-1.519419 -0.58442,-3.13235 0,-1.636279 0.60777,-3.155698 0.63111,-1.519419 1.72979,-2.664789 1.1219,-1.168717 2.64132,-1.84665 1.51942,-0.701156 3.31925,-0.701156 1.84677,0 3.36619,0.724627 1.5193,0.724627 2.5945,1.916691 1.07533,1.192065 1.65963,2.711484 0.58442,1.519419 0.58442,3.085656 0,1.636155 -0.63124,3.155574 -0.60764,1.519419 -1.70632,2.688136 -1.09855,1.14537 -2.61797,1.846773 -1.51942,0.701157 -3.31925,0.701157 z m -4.32442,-8.415111 q 0,0.958469 0.28042,1.869997 0.28053,0.888304 0.81814,1.589584 0.56107,0.70128 1.37921,1.122023 0.81814,0.420743 1.86999,0.420743 1.09868,0 1.91682,-0.444213 0.81802,-0.444091 1.35574,-1.145371 0.5376,-0.724627 0.79467,-1.612807 0.28054,-0.911652 0.28054,-1.846774 0,-0.958222 -0.28042,-1.846526 -0.28053,-0.911652 -0.84161,-1.589584 -0.56095,-0.701157 -1.37909,-1.098553 -0.79479,-0.420743 -1.84665,-0.420743 -1.09867,0 -1.91681,0.444091 -0.79467,0.420743 -1.35574,1.122023 -0.5376,0.701279 -0.81814,1.612931 -0.25707,0.888181 -0.25707,1.823303 z m 14.81434,8.274904 V 12.456476 h 7.48011 q 1.16872,0 2.15053,0.490785 1.00504,0.490908 1.72967,1.2857 0.72463,0.794792 1.12202,1.799832 0.42075,1.005164 0.42075,2.033675 0,0.771321 -0.1869,1.495948 -0.18703,0.70128 -0.53773,1.332394 -0.35058,0.631239 -0.86483,1.145494 -0.49091,0.490785 -1.12203,0.841487 l 3.64661,6.171064 h -4.32442 l -3.17916,-5.353049 h -2.50124 v 5.352926 z m 3.8335,-8.695647 h 3.50628 q 0.67793,0 1.16884,-0.631115 0.49091,-0.654462 0.49091,-1.659625 0,-1.028511 -0.56107,-1.636279 -0.56095,-0.607767 -1.21554,-0.607767 h -3.38942 z m 23.49022,5.329578 v 3.366069 H 214.45749 V 12.456476 h 11.45382 v 3.365946 h -7.62019 v 3.225862 h 6.54499 v 3.10888 h -6.54499 v 3.529622 z"
     id="path10"
     inkscape:connector-curvature="0" />
  <path
     style="opacity:1;fill:#ee8100;fill-opacity:1;fill-rule:evenodd;stroke:none;stroke-width:1;stroke-linecap:round;stroke-linejoin:round;stroke-miterlimit:4;stroke-dasharray:none;stroke-dashoffset:0;stroke-opacity:1"
     d="M-143.282 357.79h363.03v586.315h-363.03z"
     transform="translate(74.04) scale(.12353)"
     id="path12" />
  <path
     style="opacity:1;fill:#ccc;fill-opacity:1;fill-rule:evenodd;stroke:none;stroke-width:1;stroke-linecap:round;stroke-linejoin:round;stroke-miterlimit:4;stroke-dasharray:none;stroke-dashoffset:0;stroke-opacity:1"
     d="M570.957 357.79h363.03v586.315h-363.03z"
     transform="translate(74.04) scale(.12353)"
     id="path14" />
  <path
     style="font-style:normal;font-variant:normal;font-weight:800;font-stretch:normal;font-size:medium;line-height:90%;font-family:Raleway;-inkscape-font-specification:'Raleway Ultra-Bold';letter-spacing:0;word-spacing:0;fill:#fff;fill-opacity:.446064;stroke:none;stroke-width:1px;stroke-linecap:butt;stroke-linejoin:miter;stroke-opacity:1"
     d="M636.605 779.804V514.002h99.208q32.944 0 57.653 10.482 24.708 10.483 41.18 28.452 16.847 17.97 25.083 42.304 8.61 23.96 8.61 51.289 0 30.324-9.359 55.032-9.36 24.334-26.954 41.93-17.221 17.22-41.93 26.954-24.334 9.36-54.283 9.36zM805.82 646.53q0-17.596-4.867-31.822-4.492-14.6-13.477-25.082-8.985-10.483-22.088-16.098-13.103-5.616-29.575-5.616h-37.811v157.984h37.81q16.847 0 29.95-5.99 13.103-5.99 21.714-16.472 8.985-10.857 13.477-25.083 4.867-14.6 4.867-31.821z"
     transform="translate(74.04) scale(.12353)"
     id="path16" />
  <path
     style="opacity:1;fill:#e6e6e6;fill-opacity:1;fill-rule:evenodd;stroke:none;stroke-width:1;stroke-linecap:round;stroke-linejoin:round;stroke-miterlimit:4;stroke-dasharray:none;stroke-dashoffset:0;stroke-opacity:1"
     d="M188.26 357.79h383.32v586.315H188.26z"
     transform="translate(74.04) scale(.12353)"
     id="path18" />
  <path
     style="opacity:1;fill:#ccc;fill-opacity:1;fill-rule:evenodd;stroke:none;stroke-width:1;stroke-linecap:round;stroke-linejoin:round;stroke-miterlimit:4;stroke-dasharray:none;stroke-dashoffset:0;stroke-opacity:1"
     d="M206.865 357.79h-363.03v586.315h363.03z"
     transform="translate(74.04) scale(.12353)"
     id="path20" />
  <path
     style="font-style:normal;font-variant:normal;font-weight:800;font-stretch:normal;font-size:medium;line-height:90%;font-family:Raleway;-inkscape-font-specification:'Raleway Ultra-Bold';letter-spacing:0;word-spacing:0;fill:#fff;fill-opacity:.446064;stroke:none;stroke-width:1px;stroke-linecap:butt;stroke-linejoin:miter;stroke-opacity:1"
     d="M258.811 642.41q0-23.959 8.985-47.544 8.985-23.96 26.206-42.678 17.22-18.719 41.93-30.324 24.708-11.606 56.155-11.606 37.437 0 64.766 16.098 27.703 16.098 41.18 41.93l-47.17 32.944q-4.493-10.482-11.606-17.22-6.738-7.114-14.975-11.232-8.236-4.492-16.846-5.99-8.61-1.872-16.847-1.872-17.595 0-30.698 7.113-13.103 7.113-21.714 18.344-8.61 11.232-12.728 25.458-4.118 14.226-4.118 28.826 0 15.724 4.867 30.324 4.866 14.6 13.851 25.831 9.36 11.232 22.088 17.97 13.103 6.364 29.201 6.364 8.236 0 16.847-1.871 8.984-2.247 16.846-6.365 8.236-4.492 14.975-11.23 6.739-7.114 10.857-17.222l50.165 29.575q-5.99 14.6-17.97 26.206-11.605 11.606-26.954 19.467-15.35 7.862-32.57 11.98-17.221 4.118-33.694 4.118-28.826 0-53.16-11.605-23.96-11.98-41.555-31.447-17.221-19.467-26.955-44.176-9.359-24.708-9.359-50.165zM154.552 711.67q0 17.22-7.113 29.949-7.113 12.728-19.467 21.339-12.354 8.236-28.826 12.728-16.473 4.118-34.817 4.118H-65.203V514.002H82.673q13.852 0 25.083 5.99 11.231 5.99 19.093 15.723 7.862 9.36 11.98 21.714 4.492 11.98 4.492 24.708 0 19.093-9.733 35.94-9.36 16.846-28.452 25.457 22.836 6.739 35.94 23.96 13.476 17.22 13.476 44.175zm-62.52-12.355q0-12.354-7.112-20.965-7.113-8.61-17.97-8.61H-3.806v58.027H64.33q11.98 0 19.842-7.862 7.862-7.862 7.862-20.59zM-3.805 566.414v55.032h60.274q10.108 0 17.97-6.739 7.861-6.738 7.861-20.964 0-13.103-7.113-20.216-6.739-7.113-16.472-7.113z"
     transform="translate(74.04) scale(.12353)"
     id="path22" />
  <path
     style="fill:#b3b3b3;fill-opacity:1;fill-rule:evenodd;stroke:none;stroke-width:1;stroke-linecap:round;stroke-linejoin:round;stroke-miterlimit:4;stroke-dasharray:none;stroke-dashoffset:0;stroke-opacity:1"
     d="M-383.004 357.79h90.648c75.45 0 136.191 60.742 136.191 136.192v313.932c0 75.45-60.741 136.191-136.191 136.191h-90.648c-75.45 0-136.19-60.741-136.19-136.19V493.981c0-75.45 60.74-136.191 136.19-136.191z"
     transform="translate(74.04) scale(.12353)"
     id="path24" />
  <path
     style="font-style:normal;font-variant:normal;font-weight:800;font-stretch:normal;font-size:medium;line-height:90%;font-family:Raleway;-inkscape-font-specification:'Raleway Ultra-Bold';letter-spacing:0;word-spacing:0;fill:#fff;fill-opacity:.446064;stroke:none;stroke-width:1px;stroke-linecap:butt;stroke-linejoin:miter;stroke-opacity:1"
     d="M-385.335 514.002h55.407l96.962 265.802h-62.895l-20.59-59.525h-82.735l-20.216 59.525h-62.894zm58.776 163.974-31.072-93.967-31.822 93.967z"
     transform="translate(74.04) scale(.12353)"
     id="path26" />
  <text
     xml:space="preserve"
     style="font-style:normal;font-variant:normal;font-weight:normal;font-stretch:normal;font-size:29.3407917px;line-height:100%;font-family:FontAwesome;-inkscape-font-specification:FontAwesome;font-variant-ligatures:normal;font-variant-caps:normal;font-variant-numeric:normal;font-feature-settings:normal;text-align:center;letter-spacing:0px;word-spacing:0px;writing-mode:lr-tb;text-anchor:middle;fill:#800000;fill-opacity:1;stroke:#800000;stroke-width:2.82929063;stroke-linecap:butt;stroke-linejoin:miter;stroke-miterlimit:4;stroke-dasharray:none;stroke-opacity:1"
     x="36.523724"
     y="30.479403"
     id="text843"
     transform="scale(0.95908891,1.0426562)"><tspan
       sodipodi:role="line"
       id="tspan841"
       x="36.523724"
       y="30.479403"
       style="stroke-width:2.82929063">SIN</tspan></text>
</svg>
